<?xml version="1.0" encoding="utf-8"?>
<!-- Generator: Adobe Illustrator 22.1.0, SVG Export Plug-In . SVG Version: 6.00 Build 0)  -->
<svg version="1.1" xmlns="http://www.w3.org/2000/svg" xmlns:xlink="http://www.w3.org/1999/xlink" x="0px" y="0px"
	 viewBox="0 0 25 25" style="enable-background:new 0 0 25 25;" xml:space="preserve">
<style type="text/css">
	.st0{fill:#FFFFFF;}
	.st1{fill:#B37200;}
	.st2{fill:#D48200;}
	.st3{fill:none;stroke:#A05D0D;stroke-width:0.75;stroke-miterlimit:10;}
	.st4{fill:url(#SVGID_1_);}
	.st5{fill:url(#SVGID_2_);}
	.st6{fill:url(#SVGID_3_);}
	.st7{fill:url(#SVGID_4_);}
	.st8{fill:url(#SVGID_5_);}
	.st9{fill:url(#SVGID_6_);}
	.st10{fill:url(#SVGID_7_);}
	.st11{fill:url(#SVGID_8_);}
	.st12{fill:url(#SVGID_9_);}
	.st13{fill:url(#SVGID_10_);}
	.st14{fill:url(#SVGID_11_);}
	.st15{fill:url(#SVGID_12_);}
	.st16{fill:url(#SVGID_13_);}
	.st17{fill:url(#SVGID_14_);}
	.st18{fill:url(#SVGID_15_);}
	.st19{fill:url(#SVGID_16_);}
	.st20{fill:url(#SVGID_17_);}
	.st21{fill:url(#SVGID_18_);}
	.st22{fill:url(#SVGID_19_);}
	.st23{fill:url(#SVGID_20_);}
	.st24{fill:url(#SVGID_21_);}
	.st25{fill:url(#SVGID_22_);}
	.st26{fill:url(#SVGID_23_);}
	.st27{fill:url(#SVGID_24_);}
	.st28{fill:url(#SVGID_25_);}
	.st29{fill:url(#SVGID_26_);}
	.st30{fill:url(#SVGID_27_);}
	.st31{fill:url(#SVGID_28_);}
	.st32{fill:#FFE70B;stroke:#000000;stroke-width:0.75;stroke-miterlimit:10;}
	.st33{fill:none;stroke:#000000;stroke-width:0.75;stroke-miterlimit:10;}
	.st34{fill:url(#SVGID_29_);}
	.st35{fill:#C1272D;}
	.st36{fill:url(#SVGID_30_);}
	.st37{fill:url(#SVGID_31_);}
	.st38{fill:none;stroke:#000000;stroke-miterlimit:10;}
</style>
<g id="Capa_1">
	<g>
		<rect x="0.5" y="-134.5" class="st0" width="24" height="24"/>
		<path class="st1" d="M24-134v23H1v-23H24 M25-135H0v25h25V-135L25-135z"/>
	</g>
	<g>
		<rect x="1" y="-134" class="st2" width="23" height="23"/>
	</g>
	<line class="st3" x1="1" y1="-131" x2="24" y2="-131"/>
	<line class="st3" x1="1" y1="-127.5" x2="24" y2="-127.5"/>
	<line class="st3" x1="1" y1="-123.5" x2="24" y2="-123.5"/>
	<line class="st3" x1="1" y1="-120" x2="24" y2="-120"/>
	<line class="st3" x1="1" y1="-116.5" x2="24" y2="-116.5"/>
	<line class="st3" x1="1" y1="-113.5" x2="24" y2="-113.5"/>
	<line class="st3" x1="3.4" y1="-131" x2="3.4" y2="-134"/>
	<line class="st3" x1="10.4" y1="-131" x2="10.4" y2="-134"/>
	<line class="st3" x1="18.4" y1="-131" x2="18.4" y2="-134"/>
	<line class="st3" x1="15.4" y1="-127" x2="15.4" y2="-131"/>
	<line class="st3" x1="7.4" y1="-127" x2="7.4" y2="-131"/>
	<line class="st3" x1="11.4" y1="-123" x2="11.4" y2="-127.5"/>
	<line class="st3" x1="7.4" y1="-120" x2="7.4" y2="-123.5"/>
	<line class="st3" x1="16.4" y1="-113" x2="16.4" y2="-117"/>
	<line class="st3" x1="7.5" y1="-113" x2="7.5" y2="-117"/>
	<line class="st3" x1="11.5" y1="-116" x2="11.5" y2="-120"/>
	<line class="st3" x1="20.5" y1="-116" x2="20.5" y2="-120"/>
	<line class="st3" x1="2.5" y1="-116" x2="2.5" y2="-120"/>
	<line class="st3" x1="11.5" y1="-111" x2="11.5" y2="-114"/>
	<line class="st3" x1="20.5" y1="-111" x2="20.5" y2="-114"/>
	<line class="st3" x1="2.5" y1="-111" x2="2.5" y2="-114"/>
	<line class="st3" x1="16.4" y1="-120" x2="16.4" y2="-123.5"/>
	<line class="st3" x1="20.4" y1="-123" x2="20.4" y2="-127.5"/>
	<line class="st3" x1="2.4" y1="-123" x2="2.4" y2="-127.5"/>
</g>
<g id="Capa_4">
	
		<linearGradient id="SVGID_1_" gradientUnits="userSpaceOnUse" x1="177.5" y1="-121" x2="185.5" y2="-121" gradientTransform="matrix(6.123234e-17 1 -1 6.123234e-17 71.5 -312.5)">
		<stop  offset="0.1692" style="stop-color:#008FCA"/>
		<stop  offset="0.5322" style="stop-color:#00FFFF"/>
		<stop  offset="1" style="stop-color:#0071BC"/>
	</linearGradient>
	<polygon class="st4" points="180,-127 180,-135 205,-135 205,-127 	"/>
	
		<linearGradient id="SVGID_2_" gradientUnits="userSpaceOnUse" x1="194.5" y1="-121" x2="202.5" y2="-121" gradientTransform="matrix(6.123234e-17 1 -1 6.123234e-17 71.5 -312.5)">
		<stop  offset="0.1692" style="stop-color:#008FCA"/>
		<stop  offset="0.5322" style="stop-color:#00FFFF"/>
		<stop  offset="1" style="stop-color:#0071BC"/>
	</linearGradient>
	<polygon class="st5" points="180,-110 180,-118 205,-118 205,-110 	"/>
</g>
<g id="Capa_5">
	<linearGradient id="SVGID_3_" gradientUnits="userSpaceOnUse" x1="135" y1="-122.5" x2="143" y2="-122.5">
		<stop  offset="0.1692" style="stop-color:#008FCA"/>
		<stop  offset="0.5322" style="stop-color:#00FFFF"/>
		<stop  offset="1" style="stop-color:#0071BC"/>
	</linearGradient>
	<rect x="135" y="-135" class="st6" width="8" height="25"/>
	<linearGradient id="SVGID_4_" gradientUnits="userSpaceOnUse" x1="152" y1="-122.5" x2="160" y2="-122.5">
		<stop  offset="0.1692" style="stop-color:#008FCA"/>
		<stop  offset="0.5322" style="stop-color:#00FFFF"/>
		<stop  offset="1" style="stop-color:#0071BC"/>
	</linearGradient>
	<rect x="152" y="-135" class="st7" width="8" height="25"/>
</g>
<g id="Capa_6">
	<g>
		<linearGradient id="SVGID_5_" gradientUnits="userSpaceOnUse" x1="0" y1="-77.5" x2="8" y2="-77.5">
			<stop  offset="0.1692" style="stop-color:#008FCA"/>
			<stop  offset="0.5322" style="stop-color:#00FFFF"/>
			<stop  offset="1" style="stop-color:#0071BC"/>
		</linearGradient>
		<rect y="-90" class="st8" width="8" height="25"/>
		<g>
			<linearGradient id="SVGID_6_" gradientUnits="userSpaceOnUse" x1="17" y1="-86" x2="25" y2="-86">
				<stop  offset="0.1692" style="stop-color:#008FCA"/>
				<stop  offset="0.5322" style="stop-color:#00FFFF"/>
				<stop  offset="1" style="stop-color:#0071BC"/>
			</linearGradient>
			<polygon class="st9" points="25,-90 17,-82 17,-90 			"/>
			<linearGradient id="SVGID_7_" gradientUnits="userSpaceOnUse" x1="21" y1="-82" x2="21" y2="-90">
				<stop  offset="0.1692" style="stop-color:#008FCA"/>
				<stop  offset="0.5322" style="stop-color:#00FFFF"/>
				<stop  offset="1" style="stop-color:#0071BC"/>
			</linearGradient>
			<polygon class="st10" points="25,-90 25,-82 17,-82 			"/>
		</g>
		<linearGradient id="SVGID_8_" gradientUnits="userSpaceOnUse" x1="12.5" y1="-65" x2="12.5" y2="-73">
			<stop  offset="0.1692" style="stop-color:#008FCA"/>
			<stop  offset="0.5322" style="stop-color:#00FFFF"/>
			<stop  offset="1" style="stop-color:#0071BC"/>
		</linearGradient>
		<rect y="-73" class="st11" width="25" height="8"/>
		<g>
			<linearGradient id="SVGID_9_" gradientUnits="userSpaceOnUse" x1="0" y1="-69" x2="8" y2="-69">
				<stop  offset="0.1692" style="stop-color:#008FCA"/>
				<stop  offset="0.5322" style="stop-color:#00FFFF"/>
				<stop  offset="1" style="stop-color:#0071BC"/>
			</linearGradient>
			<polygon class="st12" points="8,-73 0,-65 0,-73 			"/>
			<linearGradient id="SVGID_10_" gradientUnits="userSpaceOnUse" x1="4" y1="-65" x2="4" y2="-73">
				<stop  offset="0.1692" style="stop-color:#008FCA"/>
				<stop  offset="0.5322" style="stop-color:#00FFFF"/>
				<stop  offset="1" style="stop-color:#0071BC"/>
			</linearGradient>
			<polygon class="st13" points="8,-73 8,-65 0,-65 			"/>
		</g>
	</g>
</g>
<g id="Capa_7">
	<g>
		
			<linearGradient id="SVGID_11_" gradientUnits="userSpaceOnUse" x1="45" y1="-77.5" x2="53" y2="-77.5" gradientTransform="matrix(4.489659e-11 -1 1 4.489659e-11 135 -20)">
			<stop  offset="0.1692" style="stop-color:#008FCA"/>
			<stop  offset="0.5322" style="stop-color:#00FFFF"/>
			<stop  offset="1" style="stop-color:#0071BC"/>
		</linearGradient>
		<polygon class="st14" points="70,-73 70,-65 45,-65 45,-73 		"/>
		<g>
			
				<linearGradient id="SVGID_12_" gradientUnits="userSpaceOnUse" x1="62" y1="-86" x2="70" y2="-86" gradientTransform="matrix(4.489659e-11 -1 1 4.489659e-11 135 -20)">
				<stop  offset="0.1692" style="stop-color:#008FCA"/>
				<stop  offset="0.5322" style="stop-color:#00FFFF"/>
				<stop  offset="1" style="stop-color:#0071BC"/>
			</linearGradient>
			<polygon class="st15" points="45,-90 53,-82 45,-82 			"/>
			
				<linearGradient id="SVGID_13_" gradientUnits="userSpaceOnUse" x1="66" y1="-82" x2="66" y2="-90" gradientTransform="matrix(4.489659e-11 -1 1 4.489659e-11 135 -20)">
				<stop  offset="0.1692" style="stop-color:#008FCA"/>
				<stop  offset="0.5322" style="stop-color:#00FFFF"/>
				<stop  offset="1" style="stop-color:#0071BC"/>
			</linearGradient>
			<polygon class="st16" points="45,-90 53,-90 53,-82 			"/>
		</g>
		
			<linearGradient id="SVGID_14_" gradientUnits="userSpaceOnUse" x1="0.5" y1="-31" x2="8.5" y2="-31" gradientTransform="matrix(-1 0 0 -1 70.5 -108.5)">
			<stop  offset="0.1692" style="stop-color:#008FCA"/>
			<stop  offset="0.5322" style="stop-color:#00FFFF"/>
			<stop  offset="1" style="stop-color:#0071BC"/>
		</linearGradient>
		<polygon class="st17" points="62,-90 70,-90 70,-65 62,-65 		"/>
		<g>
			
				<linearGradient id="SVGID_15_" gradientUnits="userSpaceOnUse" x1="45" y1="-69" x2="53" y2="-69" gradientTransform="matrix(4.489659e-11 -1 1 4.489659e-11 135 -20)">
				<stop  offset="0.1692" style="stop-color:#008FCA"/>
				<stop  offset="0.5322" style="stop-color:#00FFFF"/>
				<stop  offset="1" style="stop-color:#0071BC"/>
			</linearGradient>
			<polygon class="st18" points="62,-73 70,-65 62,-65 			"/>
			
				<linearGradient id="SVGID_16_" gradientUnits="userSpaceOnUse" x1="49" y1="-65" x2="49" y2="-73" gradientTransform="matrix(4.489659e-11 -1 1 4.489659e-11 135 -20)">
				<stop  offset="0.1692" style="stop-color:#008FCA"/>
				<stop  offset="0.5322" style="stop-color:#00FFFF"/>
				<stop  offset="1" style="stop-color:#0071BC"/>
			</linearGradient>
			<polygon class="st19" points="62,-73 70,-73 70,-65 			"/>
		</g>
	</g>
</g>
<g id="Capa_8">
	<g>
		
			<linearGradient id="SVGID_17_" gradientUnits="userSpaceOnUse" x1="45" y1="-32.5" x2="53" y2="-32.5" gradientTransform="matrix(-1 0 0 -1 160 -110)">
			<stop  offset="0.1692" style="stop-color:#008FCA"/>
			<stop  offset="0.5322" style="stop-color:#00FFFF"/>
			<stop  offset="1" style="stop-color:#0071BC"/>
		</linearGradient>
		<polygon class="st20" points="107,-90 115,-90 115,-65 107,-65 		"/>
		<g>
			
				<linearGradient id="SVGID_18_" gradientUnits="userSpaceOnUse" x1="62" y1="-41" x2="70" y2="-41" gradientTransform="matrix(-1 0 0 -1 160 -110)">
				<stop  offset="0.1692" style="stop-color:#008FCA"/>
				<stop  offset="0.5322" style="stop-color:#00FFFF"/>
				<stop  offset="1" style="stop-color:#0071BC"/>
			</linearGradient>
			<polygon class="st21" points="90,-65 98,-73 98,-65 			"/>
			
				<linearGradient id="SVGID_19_" gradientUnits="userSpaceOnUse" x1="66" y1="-37" x2="66" y2="-45" gradientTransform="matrix(-1 0 0 -1 160 -110)">
				<stop  offset="0.1692" style="stop-color:#008FCA"/>
				<stop  offset="0.5322" style="stop-color:#00FFFF"/>
				<stop  offset="1" style="stop-color:#0071BC"/>
			</linearGradient>
			<polygon class="st22" points="90,-65 90,-73 98,-73 			"/>
		</g>
		
			<linearGradient id="SVGID_20_" gradientUnits="userSpaceOnUse" x1="-44.5" y1="-31" x2="-36.5" y2="-31" gradientTransform="matrix(-4.489659e-11 1 -1 -4.489659e-11 71.5 -45.5)">
			<stop  offset="0.1692" style="stop-color:#008FCA"/>
			<stop  offset="0.5322" style="stop-color:#00FFFF"/>
			<stop  offset="1" style="stop-color:#0071BC"/>
		</linearGradient>
		<polygon class="st23" points="90,-82 90,-90 115,-90 115,-82 		"/>
		<g>
			
				<linearGradient id="SVGID_21_" gradientUnits="userSpaceOnUse" x1="45" y1="-24" x2="53" y2="-24" gradientTransform="matrix(-1 0 0 -1 160 -110)">
				<stop  offset="0.1692" style="stop-color:#008FCA"/>
				<stop  offset="0.5322" style="stop-color:#00FFFF"/>
				<stop  offset="1" style="stop-color:#0071BC"/>
			</linearGradient>
			<polygon class="st24" points="107,-82 115,-90 115,-82 			"/>
			
				<linearGradient id="SVGID_22_" gradientUnits="userSpaceOnUse" x1="49" y1="-20" x2="49" y2="-28" gradientTransform="matrix(-1 0 0 -1 160 -110)">
				<stop  offset="0.1692" style="stop-color:#008FCA"/>
				<stop  offset="0.5322" style="stop-color:#00FFFF"/>
				<stop  offset="1" style="stop-color:#0071BC"/>
			</linearGradient>
			<polygon class="st25" points="107,-82 107,-90 115,-90 			"/>
		</g>
	</g>
</g>
<g id="Capa_9">
	<g>
		
			<linearGradient id="SVGID_23_" gradientUnits="userSpaceOnUse" x1="-7.361459e-07" y1="-32.5" x2="8" y2="-32.5" gradientTransform="matrix(-4.489659e-11 1 -1 -4.489659e-11 115 -90)">
			<stop  offset="0.1692" style="stop-color:#008FCA"/>
			<stop  offset="0.5322" style="stop-color:#00FFFF"/>
			<stop  offset="1" style="stop-color:#0071BC"/>
		</linearGradient>
		<polygon class="st26" points="135,-82 135,-90 160,-90 160,-82 		"/>
		<g>
			
				<linearGradient id="SVGID_24_" gradientUnits="userSpaceOnUse" x1="17" y1="-41" x2="25" y2="-41" gradientTransform="matrix(-4.489659e-11 1 -1 -4.489659e-11 115 -90)">
				<stop  offset="0.1692" style="stop-color:#008FCA"/>
				<stop  offset="0.5322" style="stop-color:#00FFFF"/>
				<stop  offset="1" style="stop-color:#0071BC"/>
			</linearGradient>
			<polygon class="st27" points="160,-65 152,-73 160,-73 			"/>
			
				<linearGradient id="SVGID_25_" gradientUnits="userSpaceOnUse" x1="21" y1="-37" x2="21" y2="-45" gradientTransform="matrix(-4.489659e-11 1 -1 -4.489659e-11 115 -90)">
				<stop  offset="0.1692" style="stop-color:#008FCA"/>
				<stop  offset="0.5322" style="stop-color:#00FFFF"/>
				<stop  offset="1" style="stop-color:#0071BC"/>
			</linearGradient>
			<polygon class="st28" points="160,-65 152,-65 152,-73 			"/>
		</g>
		
			<linearGradient id="SVGID_26_" gradientUnits="userSpaceOnUse" x1="-44.5" y1="-76" x2="-36.5" y2="-76" gradientTransform="matrix(1 0 0 1 179.5 -1.5)">
			<stop  offset="0.1692" style="stop-color:#008FCA"/>
			<stop  offset="0.5322" style="stop-color:#00FFFF"/>
			<stop  offset="1" style="stop-color:#0071BC"/>
		</linearGradient>
		<rect x="135" y="-90" class="st29" width="8" height="25"/>
		<g>
			
				<linearGradient id="SVGID_27_" gradientUnits="userSpaceOnUse" x1="-7.360568e-07" y1="-24" x2="8" y2="-24" gradientTransform="matrix(-4.489659e-11 1 -1 -4.489659e-11 115 -90)">
				<stop  offset="0.1692" style="stop-color:#008FCA"/>
				<stop  offset="0.5322" style="stop-color:#00FFFF"/>
				<stop  offset="1" style="stop-color:#0071BC"/>
			</linearGradient>
			<polygon class="st30" points="143,-82 135,-90 143,-90 			"/>
			
				<linearGradient id="SVGID_28_" gradientUnits="userSpaceOnUse" x1="4" y1="-20" x2="4" y2="-28" gradientTransform="matrix(-4.489659e-11 1 -1 -4.489659e-11 115 -90)">
				<stop  offset="0.1692" style="stop-color:#008FCA"/>
				<stop  offset="0.5322" style="stop-color:#00FFFF"/>
				<stop  offset="1" style="stop-color:#0071BC"/>
			</linearGradient>
			<polygon class="st31" points="143,-82 135,-82 135,-90 			"/>
		</g>
	</g>
</g>
<g id="PacMan2">
	<g>
		<g>
			<path class="st32" d="M103.2-122.5l7.3,6.1c-0.2,0.2-0.4,0.4-0.6,0.6c-1.7,1.7-4.1,2.8-6.7,2.8c-5.2,0-9.5-4.2-9.5-9.5
				s4.2-9.5,9.5-9.5c2.6,0,5,1.1,6.7,2.8c0.5,0.5,0.9,1,1.3,1.6L103.2-122.5z"/>
		</g>
		<circle cx="106.2" cy="-127.5" r="1"/>
	</g>
</g>
<g id="Capa_13">
	<g>
		<g>
			<path class="st32" d="M191.8-32.5l-7.3,6.1c0.2,0.2,0.4,0.4,0.6,0.6c1.7,1.7,4.1,2.8,6.7,2.8c5.2,0,9.5-4.2,9.5-9.5
				S197-42,191.8-42c-2.6,0-5,1.1-6.7,2.8c-0.5,0.5-0.9,1-1.3,1.6L191.8-32.5z"/>
		</g>
		<circle cx="188.8" cy="-37.5" r="1"/>
	</g>
</g>
<g id="Capa_10">
	<g>
		<g>
			<path class="st32" d="M192.5-76.8l-6.1,7.3c-0.2-0.2-0.4-0.4-0.6-0.6c-1.7-1.7-2.8-4.1-2.8-6.7c0-5.2,4.2-9.5,9.5-9.5
				s9.5,4.2,9.5,9.5c0,2.6-1.1,5-2.8,6.7c-0.5,0.5-1,0.9-1.6,1.3L192.5-76.8z"/>
		</g>
		<circle cx="197.5" cy="-73.8" r="1"/>
	</g>
</g>
<g id="Capa_11">
	<g>
		<g>
			<path class="st32" d="M102.5-33.2l6.1-7.3c0.2,0.2,0.4,0.4,0.6,0.6c1.7,1.7,2.8,4.1,2.8,6.7c0,5.2-4.2,9.5-9.5,9.5S93-28,93-33.2
				c0-2.6,1.1-5,2.8-6.7c0.5-0.5,1-0.9,1.6-1.3L102.5-33.2z"/>
		</g>
		<circle cx="97.5" cy="-36.2" r="1"/>
	</g>
</g>
<g id="Capa_14">
	<g>
		<circle class="st32" cx="57.5" cy="-122.5" r="9.5"/>
		<line class="st33" x1="57.5" y1="-122" x2="67" y2="-122"/>
		<circle cx="60.5" cy="-127.5" r="1"/>
	</g>
</g>
<g id="Capa_15">
	<g>
		<circle class="st32" cx="147.5" cy="-32.5" r="9.5"/>
		<line class="st33" x1="147.5" y1="-32" x2="138" y2="-32"/>
		<circle cx="144.5" cy="-37.5" r="1"/>
	</g>
</g>
<g id="Capa_16">
	<g>
		<circle class="st32" cx="57.5" cy="-32.5" r="9.5"/>
		<line class="st33" x1="58" y1="-32.5" x2="58" y2="-42"/>
		<circle cx="52.5" cy="-35.5" r="1"/>
	</g>
</g>
<g id="Capa_17">
	<g>
		<circle class="st32" cx="12.5" cy="-32.5" r="9.5"/>
		<line class="st33" x1="12" y1="-32.5" x2="12" y2="-23"/>
		<circle cx="17.5" cy="-29.5" r="1"/>
	</g>
</g>
<g id="Capa_12">
	<g>
		<g>
			<linearGradient id="SVGID_29_" gradientUnits="userSpaceOnUse" x1="0.125" y1="12.5" x2="24.875" y2="12.5">
				<stop  offset="0.1692" style="stop-color:#FF0000"/>
				<stop  offset="0.5322" style="stop-color:#E95B00"/>
				<stop  offset="1" style="stop-color:#FF0000"/>
			</linearGradient>
			<path class="st34" d="M22.5,24.9c-1.3,0-2.4-0.6-2.4-1.3h-0.2c0,0.7-1.1,1.3-2.4,1.3s-2.4-0.6-2.4-1.3h-0.2
				c0,0.7-1.1,1.3-2.4,1.3s-2.4-0.6-2.4-1.3H9.9c0,0.7-1.1,1.3-2.4,1.3s-2.4-0.6-2.4-1.3H4.9c0,0.7-1.1,1.3-2.4,1.3
				s-2.4-0.6-2.4-1.3V4.4c0-2.4,5.6-4.3,12.4-4.3S24.9,2,24.9,4.4v19.1C24.9,24.3,23.8,24.9,22.5,24.9z"/>
			<path class="st35" d="M12.5,0.2c6.6,0,12.2,1.9,12.2,4.2v19.1c0,0.7-1,1.2-2.2,1.2s-2.2-0.6-2.2-1.2h-0.5c0,0.7-1,1.2-2.2,1.2
				s-2.2-0.6-2.2-1.2h-0.5c0,0.7-1,1.2-2.2,1.2s-2.2-0.6-2.2-1.2H9.8c0,0.7-1,1.2-2.2,1.2s-2.2-0.6-2.2-1.2H4.8c0,0.7-1,1.2-2.2,1.2
				s-2.2-0.6-2.2-1.2V4.4C0.2,2.2,5.9,0.2,12.5,0.2 M12.5,0C5.6,0,0,2,0,4.4v19.1C0,24.3,1.1,25,2.5,25S5,24.3,5,23.5
				C5,24.3,6.1,25,7.5,25s2.5-0.7,2.5-1.5c0,0.8,1.1,1.5,2.5,1.5s2.5-0.7,2.5-1.5c0,0.8,1.1,1.5,2.5,1.5s2.5-0.7,2.5-1.5
				c0,0.8,1.1,1.5,2.5,1.5s2.5-0.7,2.5-1.5V4.4C25,2,19.4,0,12.5,0L12.5,0z"/>
		</g>
		<g>
			<g>
				<linearGradient id="SVGID_30_" gradientUnits="userSpaceOnUse" x1="3.9712" y1="8.8237" x2="9.4902" y2="8.8237">
					<stop  offset="0.1692" style="stop-color:#FFFFFF"/>
					<stop  offset="0.5322" style="stop-color:#00D484"/>
					<stop  offset="1" style="stop-color:#FFFFFF"/>
				</linearGradient>
				<path class="st36" d="M6.7,11.6C5.2,11.6,4,10.4,4,8.8S5.2,6,6.7,6c1.5,0,2.8,1.3,2.8,2.8S8.3,11.6,6.7,11.6z"/>
				<path class="st35" d="M6.7,6.1c1.5,0,2.6,1.2,2.6,2.7s-1.2,2.7-2.6,2.7s-2.6-1.2-2.6-2.7S5.3,6.1,6.7,6.1 M6.7,5.9
					c-1.6,0-2.9,1.3-2.9,2.9c0,1.6,1.3,2.9,2.9,2.9s2.9-1.3,2.9-2.9C9.6,7.2,8.3,5.9,6.7,5.9L6.7,5.9z"/>
			</g>
			<g>
				<linearGradient id="SVGID_31_" gradientUnits="userSpaceOnUse" x1="15.5098" y1="8.8237" x2="21.0288" y2="8.8237">
					<stop  offset="0.1692" style="stop-color:#FFFFFF"/>
					<stop  offset="0.5322" style="stop-color:#00D484"/>
					<stop  offset="1" style="stop-color:#FFFFFF"/>
				</linearGradient>
				<path class="st37" d="M18.3,11.6c-1.5,0-2.8-1.3-2.8-2.8S16.7,6,18.3,6C19.8,6,21,7.3,21,8.8S19.8,11.6,18.3,11.6z"/>
				<path class="st35" d="M18.3,6.1c1.5,0,2.6,1.2,2.6,2.7s-1.2,2.7-2.6,2.7s-2.6-1.2-2.6-2.7S16.8,6.1,18.3,6.1 M18.3,5.9
					c-1.6,0-2.9,1.3-2.9,2.9c0,1.6,1.3,2.9,2.9,2.9s2.9-1.3,2.9-2.9C21.2,7.2,19.9,5.9,18.3,5.9L18.3,5.9z"/>
			</g>
		</g>
		<g>
			<ellipse cx="12.5" cy="16.9" rx="2.9" ry="3.7"/>
		</g>
		<ellipse cx="6.7" cy="9.6" rx="1" ry="0.7"/>
		<ellipse cx="18.3" cy="9.6" rx="1" ry="0.7"/>
		<line class="st38" x1="3.4" y1="5.3" x2="10.1" y2="6.5"/>
		<line class="st38" x1="21.6" y1="5.3" x2="14.9" y2="6.5"/>
	</g>
</g>
</svg>
