<svg xmlns="http://www.w3.org/2000/svg" xmlns:xlink="http://www.w3.org/1999/xlink" viewBox="0 0 25 25"><defs><style>.cls-1{fill:url(#Degradado_sin_nombre_36);}.cls-2{fill:#c1272d;}.cls-3{fill:url(#Degradado_sin_nombre_51);}.cls-4{fill:url(#Degradado_sin_nombre_51-2);}.cls-5{fill:none;stroke:#000;stroke-miterlimit:10;}</style><linearGradient id="Degradado_sin_nombre_36" x1="0.13" y1="12.5" x2="24.88" y2="12.5" gradientUnits="userSpaceOnUse"><stop offset="0.17" stop-color="red"/><stop offset="0.53" stop-color="#e95b00"/><stop offset="1" stop-color="red"/></linearGradient><linearGradient id="Degradado_sin_nombre_51" x1="3.97" y1="8.82" x2="9.49" y2="8.82" gradientUnits="userSpaceOnUse"><stop offset="0.17" stop-color="#fff"/><stop offset="0.53" stop-color="#00d484"/><stop offset="1" stop-color="#fff"/></linearGradient><linearGradient id="Degradado_sin_nombre_51-2" x1="15.51" y1="8.82" x2="21.03" y2="8.82" xlink:href="#Degradado_sin_nombre_51"/></defs><title>cuco</title><g id="Capa_12" data-name="Capa 12"><path class="cls-1" d="M22.5,24.88c-1.29,0-2.38-.62-2.38-1.35h-.24c0,.73-1.09,1.35-2.38,1.35s-2.38-.62-2.38-1.35h-.24c0,.73-1.09,1.35-2.38,1.35s-2.38-.62-2.38-1.35H9.88c0,.73-1.09,1.35-2.38,1.35s-2.38-.62-2.38-1.35H4.88c0,.73-1.09,1.35-2.38,1.35S.12,24.26.12,23.53V4.41C.12,2.05,5.68.12,12.5.12S24.88,2.05,24.88,4.41V23.53C24.88,24.26,23.79,24.88,22.5,24.88Z"/><path class="cls-2" d="M12.5.25c6.64,0,12.25,1.91,12.25,4.16V23.53c0,.66-1,1.22-2.25,1.22s-2.25-.56-2.25-1.22h-.5c0,.66-1,1.22-2.25,1.22s-2.25-.56-2.25-1.22h-.5c0,.66-1,1.22-2.25,1.22s-2.25-.56-2.25-1.22h-.5c0,.66-1,1.22-2.25,1.22s-2.25-.56-2.25-1.22h-.5c0,.66-1,1.22-2.25,1.22S.25,24.19.25,23.53V4.41C.25,2.16,5.86.25,12.5.25m0-.25C5.6,0,0,2,0,4.41V23.53C0,24.34,1.13,25,2.5,25S5,24.34,5,23.53C5,24.34,6.13,25,7.5,25s2.5-.66,2.5-1.47c0,.81,1.13,1.47,2.5,1.47s2.5-.66,2.5-1.47c0,.81,1.13,1.47,2.5,1.47s2.5-.66,2.5-1.47c0,.81,1.13,1.47,2.5,1.47s2.5-.66,2.5-1.47V4.41C25,2,19.4,0,12.5,0Z"/><path class="cls-3" d="M6.73,11.64A2.82,2.82,0,1,1,9.49,8.82,2.79,2.79,0,0,1,6.73,11.64Z"/><path class="cls-2" d="M6.73,6.13A2.69,2.69,0,1,1,4.1,8.82,2.67,2.67,0,0,1,6.73,6.13m0-.25A2.94,2.94,0,1,0,9.62,8.82,2.91,2.91,0,0,0,6.73,5.88Z"/><path class="cls-4" d="M18.27,11.64A2.82,2.82,0,1,1,21,8.82,2.79,2.79,0,0,1,18.27,11.64Z"/><path class="cls-2" d="M18.27,6.13a2.69,2.69,0,1,1-2.64,2.69,2.67,2.67,0,0,1,2.64-2.69m0-.25a2.94,2.94,0,1,0,2.88,2.94,2.92,2.92,0,0,0-2.88-2.94Z"/><ellipse cx="12.5" cy="16.91" rx="2.88" ry="3.68"/><ellipse cx="6.73" cy="9.56" rx="0.96" ry="0.74"/><ellipse cx="18.27" cy="9.56" rx="0.96" ry="0.74"/><line class="cls-5" x1="3.36" y1="5.27" x2="10.1" y2="6.49"/><line class="cls-5" x1="21.64" y1="5.27" x2="14.9" y2="6.49"/></g></svg>