<svg xmlns="http://www.w3.org/2000/svg" xmlns:xlink="http://www.w3.org/1999/xlink" viewBox="0 0 25 25"><defs><style>.cls-1{fill:url(#Degradado_sin_nombre_13);}.cls-2{fill:url(#Degradado_sin_nombre_13-2);}.cls-3{fill:url(#Degradado_sin_nombre_13-3);}.cls-4{fill:url(#Degradado_sin_nombre_13-4);}.cls-5{fill:url(#Degradado_sin_nombre_13-5);}.cls-6{fill:url(#Degradado_sin_nombre_13-6);}</style><linearGradient id="Degradado_sin_nombre_13" y1="12.5" x2="8" y2="12.5" gradientTransform="translate(8.5 8.5)" gradientUnits="userSpaceOnUse"><stop offset="0.17" stop-color="#008fca"/><stop offset="0.53" stop-color="aqua"/><stop offset="1" stop-color="#0071bc"/></linearGradient><linearGradient id="Degradado_sin_nombre_13-2" x1="17" y1="4" x2="25" y2="4" gradientTransform="translate(0 25) rotate(-90)" xlink:href="#Degradado_sin_nombre_13"/><linearGradient id="Degradado_sin_nombre_13-3" x1="21" y1="8" x2="21" y2="0" gradientTransform="translate(0 25) rotate(-90)" xlink:href="#Degradado_sin_nombre_13"/><linearGradient id="Degradado_sin_nombre_13-4" x1="-44.5" y1="59" x2="-36.5" y2="59" gradientTransform="translate(61.5 -46.5)" xlink:href="#Degradado_sin_nombre_13"/><linearGradient id="Degradado_sin_nombre_13-5" x1="0" y1="21" x2="8" y2="21" gradientTransform="translate(0 25) rotate(-90)" xlink:href="#Degradado_sin_nombre_13"/><linearGradient id="Degradado_sin_nombre_13-6" x1="4" y1="25" x2="4" y2="17" gradientTransform="translate(0 25) rotate(-90)" xlink:href="#Degradado_sin_nombre_13"/></defs><title>sprites</title><g id="Capa_7" data-name="Capa 7"><rect class="cls-1" x="8.5" y="8.5" width="8" height="25" transform="translate(-8.5 33.5) rotate(-90)"/><polygon class="cls-2" points="0 0 8 8 0 8 0 0"/><polygon class="cls-3" points="0 0 8 0 8 8 0 0"/><rect class="cls-4" x="17" width="8" height="25" transform="translate(42 25) rotate(-180)"/><polygon class="cls-5" points="17 17 25 25 17 25 17 17"/><polygon class="cls-6" points="17 17 25 17 25 25 17 17"/></g></svg>