<svg xmlns="http://www.w3.org/2000/svg" xmlns:xlink="http://www.w3.org/1999/xlink" viewBox="0 0 25 25"><defs><style>.cls-1{fill:url(#Degradado_sin_nombre_13);}.cls-2{fill:url(#Degradado_sin_nombre_13-2);}.cls-3{fill:url(#Degradado_sin_nombre_13-3);}.cls-4{fill:url(#Degradado_sin_nombre_13-4);}.cls-5{fill:url(#Degradado_sin_nombre_13-5);}.cls-6{fill:url(#Degradado_sin_nombre_13-6);}</style><linearGradient id="Degradado_sin_nombre_13" x1="-135" y1="57.5" x2="-127" y2="57.5" gradientTransform="translate(143.5 -53.5)" gradientUnits="userSpaceOnUse"><stop offset="0.17" stop-color="#008fca"/><stop offset="0.53" stop-color="aqua"/><stop offset="1" stop-color="#0071bc"/></linearGradient><linearGradient id="Degradado_sin_nombre_13-2" x1="-118" y1="49" x2="-110" y2="49" gradientTransform="translate(70 135) rotate(90)" xlink:href="#Degradado_sin_nombre_13"/><linearGradient id="Degradado_sin_nombre_13-3" x1="-114" y1="53" x2="-114" y2="45" gradientTransform="translate(70 135) rotate(90)" xlink:href="#Degradado_sin_nombre_13"/><linearGradient id="Degradado_sin_nombre_13-4" x1="-179.5" y1="14" x2="-171.5" y2="14" gradientTransform="translate(179.5 -1.5)" xlink:href="#Degradado_sin_nombre_13"/><linearGradient id="Degradado_sin_nombre_13-5" x1="-135" y1="66" x2="-127" y2="66" gradientTransform="translate(70 135) rotate(90)" xlink:href="#Degradado_sin_nombre_13"/><linearGradient id="Degradado_sin_nombre_13-6" x1="-131" y1="70" x2="-131" y2="62" gradientTransform="translate(70 135) rotate(90)" xlink:href="#Degradado_sin_nombre_13"/></defs><title>sprites</title><g id="Capa_9" data-name="Capa 9"><rect class="cls-1" x="8.5" y="-8.5" width="8" height="25" transform="translate(16.5 -8.5) rotate(90)"/><polygon class="cls-2" points="25 25 17 17 25 17 25 25"/><polygon class="cls-3" points="25 25 17 25 17 17 25 25"/><rect class="cls-4" width="8" height="25"/><polygon class="cls-5" points="8 8 0 0 8 0 8 8"/><polygon class="cls-6" points="8 8 0 8 0 0 8 8"/></g></svg>