<svg xmlns="http://www.w3.org/2000/svg" xmlns:xlink="http://www.w3.org/1999/xlink" viewBox="0 0 25 25"><defs><style>.cls-1{fill:url(#Degradado_sin_nombre_13);}.cls-2{fill:url(#Degradado_sin_nombre_13-2);}.cls-3{fill:url(#Degradado_sin_nombre_13-3);}.cls-4{fill:url(#Degradado_sin_nombre_13-4);}.cls-5{fill:url(#Degradado_sin_nombre_13-5);}.cls-6{fill:url(#Degradado_sin_nombre_13-6);}</style><linearGradient id="Degradado_sin_nombre_13" x1="-45" y1="57.5" x2="-37" y2="57.5" gradientTransform="translate(62 -45)" gradientUnits="userSpaceOnUse"><stop offset="0.17" stop-color="#008fca"/><stop offset="0.53" stop-color="aqua"/><stop offset="1" stop-color="#0071bc"/></linearGradient><linearGradient id="Degradado_sin_nombre_13-2" x1="-28" y1="49" x2="-20" y2="49" gradientTransform="translate(-20 70) rotate(180)" xlink:href="#Degradado_sin_nombre_13"/><linearGradient id="Degradado_sin_nombre_13-3" x1="-24" y1="53" x2="-24" y2="45" gradientTransform="translate(-20 70) rotate(180)" xlink:href="#Degradado_sin_nombre_13"/><linearGradient id="Degradado_sin_nombre_13-4" x1="-134.5" y1="59" x2="-126.5" y2="59" gradientTransform="translate(143 -55)" xlink:href="#Degradado_sin_nombre_13"/><linearGradient id="Degradado_sin_nombre_13-5" x1="-45" y1="66" x2="-37" y2="66" gradientTransform="translate(-20 70) rotate(180)" xlink:href="#Degradado_sin_nombre_13"/><linearGradient id="Degradado_sin_nombre_13-6" x1="-41" y1="70" x2="-41" y2="62" gradientTransform="translate(-20 70) rotate(180)" xlink:href="#Degradado_sin_nombre_13"/></defs><title>sprites</title><g id="Capa_8" data-name="Capa 8"><rect class="cls-1" x="17" width="8" height="25" transform="translate(42 25) rotate(-180)"/><polygon class="cls-2" points="0 25 8 17 8 25 0 25"/><polygon class="cls-3" points="0 25 0 17 8 17 0 25"/><rect class="cls-4" x="8.5" y="-8.5" width="8" height="25" transform="translate(16.5 -8.5) rotate(90)"/><polygon class="cls-5" points="17 8 25 0 25 8 17 8"/><polygon class="cls-6" points="17 8 17 0 25 0 17 8"/></g></svg>