<?xml version="1.0" encoding="utf-8"?>
<!-- Generator: Adobe Illustrator 22.1.0, SVG Export Plug-In . SVG Version: 6.00 Build 0)  -->
<svg version="1.1" xmlns="http://www.w3.org/2000/svg" xmlns:xlink="http://www.w3.org/1999/xlink" x="0px" y="0px"
	 viewBox="0 0 25 25" style="enable-background:new 0 0 25 25;" xml:space="preserve">
<style type="text/css">
	.st0{fill:#FFFFFF;}
	.st1{fill:#B37200;}
	.st2{fill:#D48200;}
	.st3{fill:none;stroke:#A05D0D;stroke-width:0.75;stroke-miterlimit:10;}
	.st4{fill:#FFE70B;stroke:#000000;stroke-width:0.75;stroke-miterlimit:10;}
	.st5{fill:none;stroke:#000000;stroke-width:0.75;stroke-miterlimit:10;}
</style>
<g id="Capa_1">
	<g>
		<rect x="-44.5" y="0.5" class="st0" width="24" height="24"/>
		<path class="st1" d="M-21,1v23h-23V1H-21 M-20,0h-25v25h25V0L-20,0z"/>
	</g>
	<g>
		<rect x="-44" y="1" class="st2" width="23" height="23"/>
	</g>
	<line class="st3" x1="-44" y1="4" x2="-21" y2="4"/>
	<line class="st3" x1="-44" y1="7.5" x2="-21" y2="7.5"/>
	<line class="st3" x1="-44" y1="11.5" x2="-21" y2="11.5"/>
	<line class="st3" x1="-44" y1="15" x2="-21" y2="15"/>
	<line class="st3" x1="-44" y1="18.5" x2="-21" y2="18.5"/>
	<line class="st3" x1="-44" y1="21.5" x2="-21" y2="21.5"/>
	<line class="st3" x1="-41.6" y1="4" x2="-41.6" y2="1"/>
	<line class="st3" x1="-34.6" y1="4" x2="-34.6" y2="1"/>
	<line class="st3" x1="-26.6" y1="4" x2="-26.6" y2="1"/>
	<line class="st3" x1="-29.6" y1="8" x2="-29.6" y2="4"/>
	<line class="st3" x1="-37.6" y1="8" x2="-37.6" y2="4"/>
	<line class="st3" x1="-33.6" y1="12" x2="-33.6" y2="7.5"/>
	<line class="st3" x1="-37.6" y1="15" x2="-37.6" y2="11.5"/>
	<line class="st3" x1="-28.6" y1="22" x2="-28.6" y2="18"/>
	<line class="st3" x1="-37.5" y1="22" x2="-37.5" y2="18"/>
	<line class="st3" x1="-33.5" y1="19" x2="-33.5" y2="15"/>
	<line class="st3" x1="-24.5" y1="19" x2="-24.5" y2="15"/>
	<line class="st3" x1="-42.5" y1="19" x2="-42.5" y2="15"/>
	<line class="st3" x1="-33.5" y1="24" x2="-33.5" y2="21"/>
	<line class="st3" x1="-24.5" y1="24" x2="-24.5" y2="21"/>
	<line class="st3" x1="-42.5" y1="24" x2="-42.5" y2="21"/>
	<line class="st3" x1="-28.6" y1="15" x2="-28.6" y2="11.5"/>
	<line class="st3" x1="-24.6" y1="12" x2="-24.6" y2="7.5"/>
	<line class="st3" x1="-42.6" y1="12" x2="-42.6" y2="7.5"/>
</g>
<g id="PacMan1">
	<g>
		<circle class="st4" cx="12.5" cy="12.5" r="9.5"/>
		<line class="st5" x1="12.5" y1="13" x2="22" y2="13"/>
		<circle cx="15.5" cy="7.5" r="1"/>
	</g>
</g>
<g id="PacMan2">
	<g>
		<g>
			<path class="st4" d="M58.2,12.5l7.3,6.1c-0.2,0.2-0.4,0.4-0.6,0.6c-1.7,1.7-4.1,2.8-6.7,2.8c-5.2,0-9.5-4.2-9.5-9.5S53,3,58.2,3
				c2.6,0,5,1.1,6.7,2.8c0.5,0.5,0.9,1,1.3,1.6L58.2,12.5z"/>
		</g>
		<circle cx="61.2" cy="7.5" r="1"/>
	</g>
</g>
</svg>
