<svg id="Capa_1" data-name="Capa 1" xmlns="http://www.w3.org/2000/svg" viewBox="0 0 25 25"><defs><style>.cls-1{fill:#fff;}.cls-2{fill:#b37200;}.cls-3{fill:#d48200;}.cls-4{fill:none;stroke:#a05d0d;stroke-miterlimit:10;stroke-width:0.75px;}</style></defs><title>sprites</title><rect class="cls-1" x="0.5" y="0.5" width="24" height="24"/><path class="cls-2" d="M24,1V24H1V1H24m1-1H0V25H25V0Z"/><rect class="cls-3" x="1" y="1" width="23" height="23"/><line class="cls-4" x1="1" y1="4" x2="24" y2="4"/><line class="cls-4" x1="1" y1="7.5" x2="24" y2="7.5"/><line class="cls-4" x1="1" y1="11.5" x2="24" y2="11.5"/><line class="cls-4" x1="1" y1="15" x2="24" y2="15"/><line class="cls-4" x1="1" y1="18.5" x2="24" y2="18.5"/><line class="cls-4" x1="1" y1="21.5" x2="24" y2="21.5"/><line class="cls-4" x1="3.38" y1="4" x2="3.38" y2="1"/><line class="cls-4" x1="10.38" y1="4" x2="10.38" y2="1"/><line class="cls-4" x1="18.38" y1="4" x2="18.38" y2="1"/><line class="cls-4" x1="15.38" y1="8" x2="15.38" y2="4"/><line class="cls-4" x1="7.38" y1="8" x2="7.38" y2="4"/><line class="cls-4" x1="11.38" y1="12" x2="11.38" y2="7.5"/><line class="cls-4" x1="7.38" y1="15" x2="7.38" y2="11.5"/><line class="cls-4" x1="16.38" y1="22" x2="16.38" y2="18"/><line class="cls-4" x1="7.5" y1="22" x2="7.5" y2="18"/><line class="cls-4" x1="11.5" y1="19" x2="11.5" y2="15"/><line class="cls-4" x1="20.5" y1="19" x2="20.5" y2="15"/><line class="cls-4" x1="2.5" y1="19" x2="2.5" y2="15"/><line class="cls-4" x1="11.5" y1="24" x2="11.5" y2="21"/><line class="cls-4" x1="20.5" y1="24" x2="20.5" y2="21"/><line class="cls-4" x1="2.5" y1="24" x2="2.5" y2="21"/><line class="cls-4" x1="16.38" y1="15" x2="16.38" y2="11.5"/><line class="cls-4" x1="20.38" y1="12" x2="20.38" y2="7.5"/><line class="cls-4" x1="2.38" y1="12" x2="2.38" y2="7.5"/></svg>