<svg xmlns="http://www.w3.org/2000/svg" viewBox="0 0 111.78 25"><defs><style>.cls-1{fill:#fff;}.cls-2{fill:#b37200;}.cls-3{fill:#d48200;}.cls-4,.cls-6{fill:none;}.cls-4{stroke:#a05d0d;}.cls-4,.cls-5,.cls-6{stroke-miterlimit:10;stroke-width:0.75px;}.cls-5{fill:#ffe70b;}.cls-5,.cls-6{stroke:#000;}</style></defs><title>muro</title><g id="Capa_1" data-name="Capa 1"><rect class="cls-1" x="0.5" y="0.5" width="24" height="24"/><path class="cls-2" d="M24,1V24H1V1H24m1-1H0V25H25V0Z"/><rect class="cls-3" x="1" y="1" width="23" height="23"/><line class="cls-4" x1="1" y1="4" x2="24" y2="4"/><line class="cls-4" x1="1" y1="7.5" x2="24" y2="7.5"/><line class="cls-4" x1="1" y1="11.5" x2="24" y2="11.5"/><line class="cls-4" x1="1" y1="15" x2="24" y2="15"/><line class="cls-4" x1="1" y1="18.5" x2="24" y2="18.5"/><line class="cls-4" x1="1" y1="21.5" x2="24" y2="21.5"/><line class="cls-4" x1="3.38" y1="4" x2="3.38" y2="1"/><line class="cls-4" x1="10.38" y1="4" x2="10.38" y2="1"/><line class="cls-4" x1="18.38" y1="4" x2="18.38" y2="1"/><line class="cls-4" x1="15.38" y1="8" x2="15.38" y2="4"/><line class="cls-4" x1="7.38" y1="8" x2="7.38" y2="4"/><line class="cls-4" x1="11.38" y1="12" x2="11.38" y2="7.5"/><line class="cls-4" x1="7.38" y1="15" x2="7.38" y2="11.5"/><line class="cls-4" x1="16.38" y1="22" x2="16.38" y2="18"/><line class="cls-4" x1="7.5" y1="22" x2="7.5" y2="18"/><line class="cls-4" x1="11.5" y1="19" x2="11.5" y2="15"/><line class="cls-4" x1="20.5" y1="19" x2="20.5" y2="15"/><line class="cls-4" x1="2.5" y1="19" x2="2.5" y2="15"/><line class="cls-4" x1="11.5" y1="24" x2="11.5" y2="21"/><line class="cls-4" x1="20.5" y1="24" x2="20.5" y2="21"/><line class="cls-4" x1="2.5" y1="24" x2="2.5" y2="21"/><line class="cls-4" x1="16.38" y1="15" x2="16.38" y2="11.5"/><line class="cls-4" x1="20.38" y1="12" x2="20.38" y2="7.5"/><line class="cls-4" x1="2.38" y1="12" x2="2.38" y2="7.5"/></g><g id="PacMan1"><circle class="cls-5" cx="57.5" cy="12.5" r="9.5"/><line class="cls-6" x1="57.5" y1="13" x2="67" y2="13"/><circle cx="60.5" cy="7.5" r="1"/></g><g id="PacMan2"><path class="cls-5" d="M103.24,12.5l7.3,6.08a8.6,8.6,0,0,1-.58.64,9.5,9.5,0,1,1,0-13.44,9.24,9.24,0,0,1,1.3,1.62Z"/><circle cx="106.24" cy="7.5" r="1"/></g></svg>